<svg width="75" height="50" viewBox="0 0 75 50" fill="none" xmlns="http://www.w3.org/2000/svg">
<circle cx="38.5" cy="25" r="25" fill="#68B738"/>
<g clip-path="url(#clip0_95_1)" filter="url(#filter0_dd_95_1)">
<path d="M65.55 13.9C66.1272 12.9815 66.8944 12.1973 67.8 11.6C68.3 11.25 68.6 11.25 68.9 11.9C69.3 12.85 69.65 13.85 69.35 14.9C69.2954 15.0781 69.2851 15.2668 69.3199 15.4497C69.3548 15.6327 69.4338 15.8044 69.55 15.95C69.85 16.35 70.1 16.75 70.35 17.1C70.6902 17.5319 70.9109 18.0456 70.9899 18.5897C71.0689 19.1339 71.0034 19.6892 70.8 20.2C70.6164 20.6959 70.5817 21.2346 70.7 21.75C70.7999 22.245 70.7999 22.755 70.7 23.25C70.6596 23.6207 70.5095 23.9709 70.2691 24.2559C70.0286 24.5409 69.7086 24.7478 69.35 24.85C68.7104 24.9717 68.1396 25.3284 67.75 25.85C67.7028 25.9268 67.6365 25.9901 67.5577 26.0339C67.4789 26.0777 67.3901 26.1005 67.3 26.1C66.7 26.2 65.2 24.85 65.2 24.25V23.95C65.25 22.15 65.15 22 63.5 21.25C63.1546 21.1282 62.8452 20.9219 62.6 20.65C62.3 20.25 61.9 20.3 61.45 20.45C61 20.6 60.75 20.9 60.8 21.4C60.9508 22.6104 61.0009 23.8313 60.95 25.05C60.9533 25.1891 60.9875 25.3257 61.05 25.45C62.6 27.7 63.2 30.35 63.95 32.9C64.55 34.85 65.65 35.9 67.65 36.05C67.97 36.0755 68.2876 36.1257 68.6 36.2C69.0109 36.266 69.3926 36.4538 69.6956 36.739C69.9987 37.0242 70.2092 37.3938 70.3 37.8C70.65 38.85 70.45 39.1 69.4 39.1H66.15C65.7292 39.1213 65.3167 38.9778 65 38.7C64.4939 38.2729 63.9191 37.9348 63.3 37.7C62.6155 37.4473 62.0231 36.9943 61.6 36.4C61.0143 35.5817 60.3439 34.8275 59.6 34.15C58.2 32.7 56.7 31.3 55.4 29.8C54.4103 28.7779 53.8395 27.4221 53.8 26C53.8 25.55 53.7 25.35 53.2 25.55C53.0503 25.645 52.8773 25.6969 52.7 25.7C51.3 25.7 50.6 26.55 50.1 27.8C49.65 28.85 49.05 29.85 48.5 30.9C48.1881 31.5572 48.0178 32.2727 48 33C48 34.2 48.3 34.6 49.4 35C50.1 35.25 50.75 35.5 51.1 36.2C51.5 37 51.4 37.2 50.55 37.25H47.15C46.954 37.2694 46.7568 37.2267 46.5864 37.1281C46.4159 37.0294 46.2807 36.8796 46.2 36.7L45.3 35.2C45.0347 34.8086 44.8648 34.3605 44.8041 33.8916C44.7433 33.4227 44.7932 32.9461 44.95 32.5C45.1664 31.6317 45.1835 30.7258 45 29.85C44.8739 29.24 44.8848 28.6097 45.0318 28.0045C45.1788 27.3993 45.4582 26.8342 45.85 26.35C46.15 26 46.15 25.85 45.65 25.75C43.6054 25.3157 41.6233 24.627 39.75 23.7C39.7367 23.7 39.724 23.6947 39.7146 23.6853C39.7052 23.676 39.7 23.6632 39.7 23.65C38.1 23.05 37.8 23.15 37.35 24.8C36.95 26.2 36.55 27.6 36.25 29.05C35.9 30.65 36.3 32.15 36.8 33.65C37 34.25 37.6 34.2 38.05 34.35C39.05 34.65 39.9 35.05 40.3 36.1C40.65 36.9 40.6 37 39.75 37C38.9 37 38.05 36.95 37.15 37C36.3905 37.0137 35.6493 36.7667 35.05 36.3C32.65 34.7 31.95 32.25 31.75 29.6C31.65 27.95 30.75 26.65 29.7 25.4C29.5 25.15 29.3 25.05 29 25.25C27.9267 25.8418 26.8062 26.3435 25.65 26.75C23.2371 27.602 21.1198 29.1292 19.55 31.15C18.9638 31.8875 18.5842 32.7675 18.45 33.7C18.3 34.6 18.55 35 19.45 35.25C20.35 35.5 20.8 36 20.9 36.95C20.95 37.35 20.8 37.55 20.4 37.55H16.35C16.2174 37.5406 16.0891 37.4993 15.9759 37.4297C15.8628 37.36 15.7681 37.2641 15.7 37.15C15.0719 36.3724 14.7358 35.3995 14.75 34.4C14.7237 32.6724 14.8745 30.9468 15.2 29.25C15.2667 28.7418 15.4564 28.2576 15.7527 27.8394C16.0489 27.4212 16.4427 27.0815 16.9 26.85C19.85 25.45 21.4 22.8 22.8 20.05C23.1 19.5 22.85 19.4 22.35 19.45C20.9506 19.6442 19.6248 20.1952 18.5 21.05C17.0271 22.1244 15.6396 23.3113 14.35 24.6C12.9748 25.9968 11.1513 26.8643 9.19998 27.05C5.54998 27.25 3.84998 25.2 3.99998 21.9C4.03351 20.7748 4.4578 19.6964 5.19998 18.85C5.45799 18.5155 5.80985 18.2655 6.21061 18.1319C6.61138 17.9983 7.04287 17.9872 7.44998 18.1C8.19998 18.3 8.39998 18.7 8.09998 19.45C7.94998 19.75 7.74998 20 7.59998 20.3C7.38428 20.6065 7.21574 20.9435 7.09998 21.3C6.54998 22.8 7.29998 23.85 8.84998 24C10.5 24.15 11.85 23.45 13.1 22.45C14.6059 21.2441 15.9503 19.8493 17.1 18.3C17.9596 17.1687 19.042 16.2256 20.2804 15.529C21.5188 14.8325 22.8868 14.3971 24.3 14.25C25.45 14.1 26.45 13.6 27.55 13.3C29.6072 12.6728 31.7495 12.3692 33.9 12.4C34.896 12.4415 35.8883 12.2533 36.8 11.85C39.25 10.85 41.8 10.85 44.35 11.35C46.35 11.75 48.35 12.25 50.3 12.75C51.4605 12.9662 52.6537 12.9321 53.8 12.65C55.9943 12.0937 58.2389 11.7587 60.5 11.65C61.9812 11.5779 63.4576 11.8697 64.8 12.5C65.8 12.95 65.8 12.95 65.55 13.9Z" fill="black"/>
</g>
<defs>
<filter id="filter0_dd_95_1" x="0" y="11" width="75" height="36" filterUnits="userSpaceOnUse" color-interpolation-filters="sRGB">
<feFlood flood-opacity="0" result="BackgroundImageFix"/>
<feColorMatrix in="SourceAlpha" type="matrix" values="0 0 0 0 0 0 0 0 0 0 0 0 0 0 0 0 0 0 127 0" result="hardAlpha"/>
<feOffset dy="4"/>
<feGaussianBlur stdDeviation="2"/>
<feComposite in2="hardAlpha" operator="out"/>
<feColorMatrix type="matrix" values="0 0 0 0 0 0 0 0 0 0 0 0 0 0 0 0 0 0 0.25 0"/>
<feBlend mode="normal" in2="BackgroundImageFix" result="effect1_dropShadow_95_1"/>
<feColorMatrix in="SourceAlpha" type="matrix" values="0 0 0 0 0 0 0 0 0 0 0 0 0 0 0 0 0 0 127 0" result="hardAlpha"/>
<feOffset dy="4"/>
<feGaussianBlur stdDeviation="2"/>
<feComposite in2="hardAlpha" operator="out"/>
<feColorMatrix type="matrix" values="0 0 0 0 0 0 0 0 0 0 0 0 0 0 0 0 0 0 0.25 0"/>
<feBlend mode="normal" in2="effect1_dropShadow_95_1" result="effect2_dropShadow_95_1"/>
<feBlend mode="normal" in="SourceGraphic" in2="effect2_dropShadow_95_1" result="shape"/>
</filter>
<clipPath id="clip0_95_1">
<rect width="67" height="28" fill="white" transform="translate(4 11)"/>
</clipPath>
</defs>
</svg>
